HIERARCHY
ROOT joint_0
{
	OFFSET 0.000000 0.000000 0.000000
	CHANNELS 6 Xposition Yposition Zposition Zrotation Yrotation Xrotation 
	JOINT joint_1
	{
		OFFSET 6.590088 -1.122192 114.019043
		CHANNELS 3 Zrotation Yrotation Xrotation
		JOINT joint_2
		{
			OFFSET -5.956055 -0.820435 104.151001
			CHANNELS 3 Zrotation Yrotation Xrotation
			JOINT joint_3
			{
				OFFSET -7.343506 -1.103027 103.942993
				CHANNELS 3 Zrotation Yrotation Xrotation
				JOINT joint_4
				{
					OFFSET 3.109131 -2.857056 147.715942
					CHANNELS 3 Zrotation Yrotation Xrotation
					JOINT joint_5
					{
						OFFSET 28.592285 -2.852295 87.703979
						CHANNELS 3 Zrotation Yrotation Xrotation
						End Site
						{
							OFFSET 0.000000 0.000000 0.000000
						}
					}
				}
				JOINT joint_6
				{
					OFFSET -0.332520 -33.687378 82.401978
					CHANNELS 3 Zrotation Yrotation Xrotation
					JOINT joint_7
					{
						OFFSET -7.397461 -168.719177 -22.750977
						CHANNELS 3 Zrotation Yrotation Xrotation
						JOINT joint_8
						{
							OFFSET 17.065918 -24.903137 -272.721069
							CHANNELS 3 Zrotation Yrotation Xrotation
							JOINT joint_9
							{
								OFFSET 33.311279 -37.031616 -278.192993
								CHANNELS 3 Zrotation Yrotation Xrotation
								End Site
								{
									OFFSET 0.000000 0.000000 0.000000
								}
							}
						}
					}
				}
				JOINT joint_10
				{
					OFFSET 3.914307 30.461670 83.552979
					CHANNELS 3 Zrotation Yrotation Xrotation
					JOINT joint_11
					{
						OFFSET 15.543701 166.845459 -30.963013
						CHANNELS 3 Zrotation Yrotation Xrotation
						JOINT joint_12
						{
							OFFSET 35.734863 35.017700 -269.786011
							CHANNELS 3 Zrotation Yrotation Xrotation
							JOINT joint_13
							{
								OFFSET 70.506592 13.977783 -273.320007
								CHANNELS 3 Zrotation Yrotation Xrotation
								End Site
								{
									OFFSET 0.000000 0.000000 0.000000
								}
							}
						}
					}
				}
			}
		}
	}
	JOINT joint_14
	{
		OFFSET -0.314697 -95.093994 -116.004028
		CHANNELS 3 Zrotation Yrotation Xrotation
		JOINT joint_15
		{
			OFFSET -22.490723 2.017883 -455.510986
			CHANNELS 3 Zrotation Yrotation Xrotation
			JOINT joint_16
			{
				OFFSET -46.427490 7.144104 -496.360985
				CHANNELS 3 Zrotation Yrotation Xrotation
				JOINT joint_17
				{
					OFFSET 209.055420 -37.122803 -85.191002
					CHANNELS 3 Zrotation Yrotation Xrotation
					End Site
					{
						OFFSET 0.000000 0.000000 0.000000
					}
				}
			}
		}
	}
	JOINT joint_18
	{
		OFFSET 5.652832 94.642578 -116.244019
		CHANNELS 3 Zrotation Yrotation Xrotation
		JOINT joint_19
		{
			OFFSET -12.379883 -7.332642 -455.843994
			CHANNELS 3 Zrotation Yrotation Xrotation
			JOINT joint_20
			{
				OFFSET -45.227051 -8.172241 -496.457985
				CHANNELS 3 Zrotation Yrotation Xrotation
				JOINT joint_21
				{
					OFFSET 210.522949 -11.530396 -88.809004
					CHANNELS 3 Zrotation Yrotation Xrotation
					End Site
					{
						OFFSET 0.000000 0.000000 0.000000
					}
				}
			}
		}
	}
}
MOTION
Frames: 13
Frame Time: 0.016667
-2687.645264 948.419373 1191.899048 -4.913159 9.757134 -0.850407 1.149282 1.427067 -3.303422 1.200357 -0.237717 0.660606 1.084951 0.378289 -0.582244 1.432363 -1.856809 -4.110924 0.000000 0.000000 0.000000 0.443618 3.374425 1.623845 0.530949 3.451253 0.325215 1.736009 -6.782398 6.779409 0.000000 0.000000 0.000000 3.516849 0.832709 1.645131 1.263755 -0.051842 6.605561 1.789948 4.590633 5.795017 0.000000 0.000000 0.000000 9.227282 -0.584633 -5.225858 8.899729 15.396000 1.285387 9.610618 8.987898 5.148548 0.000000 0.000000 0.000000 -1.756931 -23.982179 5.193601 -2.756829 -4.123401 1.536144 -3.113723 28.662905 0.089589 0.000000 0.000000 0.000000 
-2687.224365 948.048645 1192.399048 -5.358375 9.988155 -1.041977 1.228542 1.456874 -2.906516 1.265469 -0.243758 0.600989 1.159434 0.388430 -0.543042 1.455458 -1.909799 -4.165266 0.000000 0.000000 0.000000 0.330163 3.373039 1.606443 0.563182 3.432876 0.306179 1.777809 -6.931034 6.879686 0.000000 0.000000 0.000000 3.479225 0.842217 1.531193 1.303694 -0.046302 6.654339 1.904006 4.889581 6.129313 0.000000 0.000000 0.000000 9.573855 -0.558831 -5.288344 9.238485 14.736720 1.380309 9.919291 9.111934 5.289546 0.000000 0.000000 0.000000 -1.564121 -24.087646 5.382407 -2.588214 -4.291853 1.580917 -2.951538 28.853153 0.156861 0.000000 0.000000 0.000000 
-2687.107422 947.430603 1193.004028 -5.731295 10.270333 -1.213476 1.282586 1.456863 -2.606017 1.310744 -0.230199 0.540922 1.214166 0.380516 -0.503244 1.454341 -1.976780 -4.151818 0.000000 0.000000 0.000000 0.269540 3.363213 1.605663 0.593015 3.408212 0.415614 1.795584 -7.004390 6.857693 0.000000 0.000000 0.000000 3.424831 0.824319 1.503283 1.337497 -0.055428 6.699712 1.997052 5.140707 6.390487 0.000000 0.000000 0.000000 9.899991 -0.587507 -5.330912 9.561336 14.050652 1.429398 10.201638 9.301360 5.433660 0.000000 0.000000 0.000000 -1.408098 -24.346437 5.579618 -2.491245 -4.361670 1.611119 -2.856651 29.133148 0.198270 0.000000 0.000000 0.000000 
-2687.199707 946.608582 1193.678955 -6.061112 10.576623 -1.387693 1.319262 1.448403 -2.374759 1.342208 -0.207367 0.487086 1.254134 0.364768 -0.467625 1.436401 -2.050129 -4.091235 0.000000 0.000000 0.000000 0.241535 3.340355 1.628212 0.621387 3.372578 0.600795 1.797464 -7.008129 6.779039 0.000000 0.000000 0.000000 3.367062 0.782325 1.542477 1.368269 -0.079766 6.739815 2.075249 5.338271 6.604095 0.000000 0.000000 0.000000 10.209718 -0.638764 -5.337333 9.872314 13.336225 1.437680 10.462231 9.536612 5.578848 0.000000 0.000000 0.000000 -1.272331 -24.683436 5.794385 -2.435297 -4.388000 1.637606 -2.800035 29.475690 0.224894 0.000000 0.000000 0.000000 
-2687.335938 945.682190 1194.307007 -6.358650 10.865114 -1.550698 1.342698 1.458563 -2.206717 1.361694 -0.191625 0.444335 1.280446 0.354568 -0.438644 1.414941 -2.112345 -4.019887 0.000000 0.000000 0.000000 0.224765 3.311585 1.656425 0.652741 3.332867 0.779564 1.807035 -7.007647 6.774278 0.000000 0.000000 0.000000 3.320846 0.725284 1.584655 1.399386 -0.124521 6.822910 2.138672 5.497695 6.770504 0.000000 0.000000 0.000000 10.486893 -0.663061 -5.333816 10.151718 12.617733 1.431292 10.687227 9.767566 5.710092 0.000000 0.000000 0.000000 -1.139552 -25.011565 5.999183 -2.379732 -4.405559 1.652876 -2.744578 29.805124 0.250954 0.000000 0.000000 0.000000 
-2687.478027 944.657959 1194.886963 -6.605689 11.123631 -1.690760 1.347241 1.502235 -2.109529 1.363276 -0.189997 0.416427 1.286475 0.359709 -0.420128 1.392089 -2.160790 -3.943338 0.000000 0.000000 0.000000 0.217471 3.271920 1.688311 0.688737 3.284759 0.926822 1.831039 -7.001664 6.901957 0.000000 0.000000 0.000000 3.294879 0.647570 1.609909 1.430635 -0.201749 6.976065 2.183580 5.619360 6.879084 0.000000 0.000000 0.000000 10.721767 -0.634086 -5.329189 10.388423 11.886895 1.418405 10.866945 9.985274 5.821908 0.000000 0.000000 0.000000 -1.006607 -25.310899 6.180928 -2.312106 -4.425233 1.642444 -2.680743 30.119333 0.281377 0.000000 0.000000 0.000000 
-2687.664307 943.530396 1195.420044 -6.819366 11.364993 -1.818249 1.337747 1.563715 -2.075015 1.352528 -0.197420 0.399838 1.278388 0.372454 -0.408560 1.365716 -2.197970 -3.856766 0.000000 0.000000 0.000000 0.220727 3.225737 1.724207 0.727986 3.231669 1.069794 1.862694 -6.988701 7.102689 0.000000 0.000000 0.000000 3.279824 0.554921 1.639373 1.461475 -0.298941 7.170599 2.213415 5.701412 6.942993 0.000000 0.000000 0.000000 10.923284 -0.578102 -5.313784 10.592638 11.152737 1.391959 11.012072 10.199304 5.920041 0.000000 0.000000 0.000000 -0.876786 -25.601856 6.351616 -2.243716 -4.435751 1.620874 -2.617063 30.419423 0.311882 0.000000 0.000000 0.000000 
-2687.842285 942.378479 1195.792969 -7.061484 11.586455 -1.952983 1.334677 1.614781 -2.071782 1.349464 -0.204249 0.391499 1.276498 0.382793 -0.404806 1.339982 -2.215719 -3.772197 0.000000 0.000000 0.000000 0.216123 3.192239 1.756812 0.771009 3.190342 1.202898 1.905869 -7.030956 7.332121 0.000000 0.000000 0.000000 3.257600 0.470683 1.674027 1.494808 -0.386110 7.374119 2.238440 5.757226 6.994615 0.000000 0.000000 0.000000 11.101114 -0.526046 -5.285350 10.774286 10.465093 1.358456 11.137732 10.383864 6.004975 0.000000 0.000000 0.000000 -0.745028 -25.859069 6.523879 -2.170856 -4.440044 1.623001 -2.545142 30.634325 0.342592 0.000000 0.000000 0.000000 
-2687.994873 941.212524 1195.932007 -7.366304 11.791940 -2.111444 1.346559 1.643136 -2.092191 1.362694 -0.213714 0.392380 1.289182 0.387902 -0.409889 1.315125 -2.201543 -3.689659 0.000000 0.000000 0.000000 0.197449 3.179120 1.779793 0.819620 3.167095 1.329484 1.964288 -7.158629 7.581625 0.000000 0.000000 0.000000 3.220354 0.408022 1.721772 1.533458 -0.446446 7.577960 2.260131 5.777555 7.039441 0.000000 0.000000 0.000000 11.253337 -0.489624 -5.233516 10.932005 9.827420 1.316840 11.242186 10.531616 6.074563 0.000000 0.000000 0.000000 -0.607256 -26.077997 6.710434 -2.092686 -4.436438 1.669343 -2.461116 30.729939 0.373306 0.000000 0.000000 0.000000 
-2688.139648 940.021301 1195.911011 -7.699150 11.977351 -2.277977 1.365096 1.660120 -2.143225 1.383911 -0.223271 0.400890 1.308496 0.390672 -0.421206 1.291579 -2.165919 -3.610509 0.000000 0.000000 0.000000 0.168284 3.179120 1.797813 0.872864 3.155576 1.446051 2.035005 -7.341447 7.861282 0.000000 0.000000 0.000000 3.173196 0.354211 1.772969 1.575089 -0.495949 7.791786 2.277041 5.771251 7.072809 0.000000 0.000000 0.000000 11.381120 -0.457964 -5.168657 11.065952 9.237478 1.274437 11.327724 10.647216 6.130562 0.000000 0.000000 0.000000 -0.467831 -26.263517 6.899916 -2.010711 -4.425994 1.738980 -2.369523 30.739406 0.404102 0.000000 0.000000 0.000000 
-2688.281494 938.849915 1195.838013 -8.018848 12.124783 -2.423782 1.382899 1.689407 -2.220727 1.404624 -0.234660 0.417355 1.326065 0.396732 -0.436545 1.272847 -2.130668 -3.545895 0.000000 0.000000 0.000000 0.137208 3.187608 1.816927 0.926843 3.153549 1.538665 2.111208 -7.547930 8.154967 0.000000 0.000000 0.000000 3.131372 0.293583 1.801178 1.614787 -0.556502 8.008659 2.296251 5.781222 7.114368 0.000000 0.000000 0.000000 11.499430 -0.424825 -5.119359 11.188875 8.735466 1.249546 11.413850 10.722483 6.178773 0.000000 0.000000 0.000000 -0.333151 -26.400733 7.069191 -1.923436 -4.415565 1.802913 -2.273411 30.691182 0.435984 0.000000 0.000000 0.000000 
-2688.420166 937.707458 1195.727051 -8.319828 12.218195 -2.541198 1.400720 1.743495 -2.324469 1.424634 -0.249222 0.439887 1.341993 0.408538 -0.454469 1.260223 -2.096147 -3.499136 0.000000 0.000000 0.000000 0.097458 3.202596 1.840783 0.981162 3.158889 1.595234 2.193433 -7.775385 8.469995 0.000000 0.000000 0.000000 3.094777 0.220501 1.786867 1.652283 -0.637803 8.245376 2.319716 5.826937 7.167957 0.000000 0.000000 0.000000 11.611021 -0.379564 -5.091598 11.302659 8.340554 1.249006 11.503757 10.738431 6.216874 0.000000 0.000000 0.000000 -0.204185 -26.465113 7.216289 -1.826058 -4.414671 1.849452 -2.170017 30.572994 0.470245 0.000000 0.000000 0.000000 
-2688.557129 936.583984 1195.562988 -8.605848 12.274872 -2.638442 1.418176 1.808435 -2.450467 1.444222 -0.264599 0.468689 1.356311 0.423332 -0.477626 1.251897 -2.061556 -3.465068 0.000000 0.000000 0.000000 0.053726 3.225874 1.866397 1.036296 3.173289 1.627554 2.281289 -8.027452 8.799357 0.000000 0.000000 0.000000 3.061029 0.140126 1.748505 1.687813 -0.730542 8.487327 2.345321 5.888104 7.228947 0.000000 0.000000 0.000000 11.712786 -0.334756 -5.076394 11.405101 8.036090 1.266166 11.591741 10.707538 6.245148 0.000000 0.000000 0.000000 -0.080617 -26.482382 7.345142 -1.723978 -4.413446 1.889485 -2.062747 30.396370 0.505252 0.000000 0.000000 0.000000 
